<?xml version="1.0" encoding="UTF-8" standalone="no"?>
<svg
   xmlns:dc="http://purl.org/dc/elements/1.1/"
   xmlns:cc="http://creativecommons.org/ns#"
   xmlns:rdf="http://www.w3.org/1999/02/22-rdf-syntax-ns#"
   xmlns:svg="http://www.w3.org/2000/svg"
   xmlns="http://www.w3.org/2000/svg"
   xmlns:sodipodi="http://sodipodi.sourceforge.net/DTD/sodipodi-0.dtd"
   xmlns:inkscape="http://www.inkscape.org/namespaces/inkscape"
   viewBox="0 0 600 450"
   version="1.1"
   id="svg51"
   sodipodi:docname="HuntingDog.svg"
   inkscape:version="1.0.2 (e86c870879, 2021-01-15)">
  <metadata
     id="metadata55">
    <rdf:RDF>
      <cc:Work
         rdf:about="">
        <dc:format>image/svg+xml</dc:format>
        <dc:type
           rdf:resource="http://purl.org/dc/dcmitype/StillImage" />
      </cc:Work>
    </rdf:RDF>
  </metadata>
  <sodipodi:namedview
     pagecolor="#ffffff"
     bordercolor="#666666"
     borderopacity="1"
     objecttolerance="10"
     gridtolerance="10"
     guidetolerance="10"
     inkscape:pageopacity="0"
     inkscape:pageshadow="2"
     inkscape:window-width="1920"
     inkscape:window-height="1009"
     id="namedview53"
     showgrid="false"
     inkscape:zoom="0.93555556"
     inkscape:cx="100.70729"
     inkscape:cy="273.25442"
     inkscape:window-x="0"
     inkscape:window-y="34"
     inkscape:window-maximized="0"
     inkscape:current-layer="svg51" />
  <desc
     id="desc2">
    Extracted dog from https://openclipart.org/detail/211463/hunter-military-helmet
    which was a remix of https://openclipart.org/detail/172462/hunter
    
    Reworked code to reduce complexity for hand editing
    
    Jay Nick
    steamcoded.org
  </desc>
  <defs
     id="defs23">
    <linearGradient
       id="lg1"
       y2="704.05"
       gradientUnits="userSpaceOnUse"
       x2="717.33"
       y1="693.44"
       x1="711.2"
       gradientTransform="translate(-215.53943,-402.18797)">
      <stop
         style="stop-color:#ffc892;stop-opacity:.77358"
         offset="0"
         id="stop4" />
      <stop
         style="stop-color:#ffce9e;stop-opacity:.14151"
         offset="1"
         id="stop6" />
    </linearGradient>
    <radialGradient
       id="rg1"
       gradientUnits="userSpaceOnUse"
       cx="885.49"
       cy="633.01"
       gradientTransform="matrix(0.16803,-0.65211,1.2782,0.32936,-425.74336,629.64299)"
       r="13.25">
      <stop
         style="stop-color:#3f3f3f;stop-opacity:.70755"
         offset="0"
         id="stop9" />
      <stop
         style="stop-color:#585858;stop-opacity:0"
         offset="1"
         id="stop11" />
    </radialGradient>
    <radialGradient
       id="rg2"
       gradientUnits="userSpaceOnUse"
       cy="677.64"
       cx="500.48"
       gradientTransform="matrix(-1.0012,2.4092,-1.6648,-0.69182,1797.4,-518.463)"
       r="44.077">
      <stop
         style="stop-color:#401f00"
         offset="0"
         id="stop14" />
      <stop
         style="stop-color:#532800"
         offset=".25"
         id="stop16" />
      <stop
         style="stop-color:#673200"
         offset=".5"
         id="stop18" />
      <stop
         style="stop-color:#8e4601"
         offset="1"
         id="stop20" />
    </radialGradient>
  </defs>
  <g
     id="g99">
    <ellipse
       style="fill:#502d16;stroke:#552200;stroke-width:0.923428"
       id="path67"
       cx="567.10443"
       cy="174.31628"
       rx="11.330262"
       ry="9.5963659" />
    <path
       style="fill:#502d16;stroke:none;stroke-width:0.91567px"
       d="m 210.54111,243.29234 -3.5355,2.4749 c -2.6389,4.1387 -2.3981,14.757 -12.021,3.182 -2.5927,3.8203 -5.1854,0.81162 -7.7782,-0.70711 -4.6688,6.7869 -8.1444,12.837 -18.385,15.91 -6.8987,5.7838 -12.368,12.425 -23.688,15.556 1.6269,4.5464 2.9332,3.4832 6.364,39.598 3.5355,-1.8211 7.0711,0.73244 10.607,3.5355 3.2919,-0.53668 6.8634,-1.5396 7.4246,2.4749 l 2.4749,7.4246 c 0.37177,6.3066 -7.6854,2.7795 -12.374,3.182 -3.0641,2.8914 -6.1283,0.97717 -9.1924,0.35356 -7.4399,0.6107 -15.168,1.6253 -13.435,-10.607 -4.0998,-1.9463 -3.7133,-9.5005 -4.2426,-15.91 -6.031,-8.1283 -6.9558,-17.108 -7.4246,-26.163 -2.5716,-3.9238 -2.2328,-8.5753 -1.0607,-13.435 -0.0574,-3.7702 -1.367,-8.3752 6.7175,-6.7175 7.24,-21.186 11.865,-43.78 30.759,-58.69 z"
       id="path25" />
    <path
       style="fill:#784421;stroke:none;stroke-width:0.91567px"
       d="m 29.01,35.55 c 9.6498,60.859 69.555,69.876 74.995,73.813 14.51,3.3379 22.4,-3.7065 31,-4 29.812,-1.4039 55.351,-1.54 99.5,14 23.749,8.8381 48.422,12.133 73.5,13 18.333,-4.0838 36.667,-1.3928 55,1 11.065,4.0347 27.783,3.8293 44,4 l 9.5,-2.5 c 1.8162,-10.39 17.359,-9.2262 33.5,-10.5 17.514,-7.6328 38.023,-16.478 68.5,7 4.1807,2.0657 10.276,1.7379 9.5,10 14.181,15.34 36.58,21.796 43.5,24 -3.233,1.5393 -5.0026,0.61758 -4.4393,5.2019 -6.1597,-1.3455 -3.651,3.6962 -1.0607,8.7981 2.4235,1.9728 5.1052,2.9124 8,3 -1.0591,6.5205 -13.29,24.05 -15.889,21.707 -5.3579,4.8707 -20.28,4.059 -24.399,7.1317 -4.5426,4.8818 -5.2873,3.7495 -11.541,0.50952 -1.496,-2.3685 -4.7601,-6.3628 -8.5858,-5.4697 -4.7413,-1.1956 -8.2316,4.3535 -14.232,-4.818 l -8.36,1.94 -45,6.12 c -3.503,-0.88001 -7.3232,3.7457 -11,5.8839 -14.39,8.836 -27.469,13.74 -41,20 -13.999,27.591 -11.156,59.398 -6,70 l 18.464,50.277 c 8.5106,7.6942 12.607,18.857 14.536,31.723 5.3206,5.3079 10.257,9.8472 16,16 l 8.5858,0.87868 c 4.272,-0.57457 9.3038,-1.512 13.121,10.182 -0.0146,3.4781 -0.87473,5.6879 -3.7071,4.9393 -3.7231,3.3788 -7.2785,4.1838 -11.47,2.4142 -6.9601,2.8008 -12.369,1.4527 -18.061,1.2929 -2.3645,1.0509 -12.335,-9.8779 -10.47,-14.707 -3.5082,-4.0848 -7.8284,-9.9948 -7.8284,-9.9948 -1.1776,-4.9361 -3.2534,-4.483 -5.3536,-3.8839 -10.324,2.2706 -7.6513,-5.9792 -8.818,-11.121 -8.9582,-8.7502 -14.726,-23.882 -22,-36 -13.211,-20.005 -23.807,-36.699 -30.005,-52.47 -4.692,-4.3538 -8.0443,-9.4891 -7.1161,-17.121 -6.5253,-0.4332 -11.165,-0.27701 -24.823,-2.9393 l -61.06,-11.47 c -23.593,-2.5632 -42.476,-19.777 -62,-35 -9.1486,-9.249 -16.678,-10.944 -23,-7 1.8034,11.237 0.43493,24.06 -0.46967,36.652 0.26151,13.554 -1.4628,23.355 -3.5303,34.581 l -0.53033,19.48 c 7.4732,15.939 8.5432,43.066 12.237,61.945 16.457,6.4121 9.9348,0.23075 17.939,5.8683 1.1243,2.6667 2.1719,7.8082 2.3536,10.475 -1.5299,2.1478 -6.7447,5.5105 -13.768,1.6568 -5.8058,2.2738 -6.6783,-0.55677 -10.293,-0.18198 -5.5342,-0.38716 -14.356,-0.15278 -11.707,-6.7071 l -1.23,-16.77 c -14.18,-16.16 -11.1,-33.01 -11.7,-53.05 0.29,-9.62 -0.47,-23.28 -1.3,-32.95 -8.7818,-13.876 -19.832,-24.424 -22,-48 -34.707,-49.45 -21.691,-82.672 -20,-85 0.84987,-4.8063 3.5746,-10.854 1,-16.945 -58.801,-24.444 -64.229,-36.201 -77.47,-56.47 -6.4919,-12.815 -5.5169,-28.527 -3.7626,-40.586 2.0836,-22.663 11.306,-6.4116 10.237,0.18718 z"
       id="path27" />
    <path
       style="fill:#784421;stroke:none;stroke-width:0.91567px"
       d="m 301.55,217.8 c -8.7874,-3.2051 -16.866,-8.0486 -40.305,22.627 -7.098,8.3809 -5.7099,12.519 -3.5355,16.263 10.205,23.586 31.864,40.012 48.79,59.397 l 9.1924,10.96 -1.0607,6.7175 -3.8891,0.35355 c -3.215,-0.93333 -7.2132,-5.2724 -11.314,3.5355 l -4.2426,2.4749 c -3.831,-4.0731 -6.6199,1.2323 -9.5459,5.3033 -3.0783,-2.4278 -4.8527,1.664 -7.0711,3.5355 4.0987,3.8792 3.3336,11.406 14.142,10.253 5.8963,1.2116 8.0778,7.5101 20.86,-0.7071 5.3033,-3.497 10.607,-6.7736 15.91,-14.849 5.1406,-6.4334 15.462,-8.8002 13.435,-20.86 0.60324,-6.2591 -11.547,-14.112 -17.678,-21.213 -3.34,-10.025 -9.996,-18.723 -18.031,-26.87 l 2.1213,-6.0104 c 9.7167,-6.9268 19.926,-13.607 38.891,-15.91 6.2706,-5.323 14.284,-3.6736 18.031,-19.092"
       id="path29" />
    <path
       style="fill:#502d16;stroke:none;stroke-width:0.91567px"
       d="m 467.37,129.05 -1.7678,3.182 c -19.585,10.46 -19.556,23.1 -22.981,35.355 -1.33184,11.80092 -2.41986,16.94489 -1.3666,30.83727 1.5491,7.0711 3.22916,13.018 6.66376,20.089 13.39121,1.86028 11.85078,-1.5793 32.72062,-18.49866 5.2741,-19.096 8.92752,-32.98381 7.94462,-49.39781 l 1.7678,-7.7782"
       id="path31"
       sodipodi:nodetypes="cccccccc" />
    <path
       style="fill:#552200;stroke:none;stroke-width:1px;stroke-linecap:butt;stroke-linejoin:miter;stroke-opacity:1"
       d="m 262.02974,265.86893 c -2.3385,-8.13624 -12.62597,-13.03683 0.69544,-27.54746 12.88448,-16.54785 25.8005,-27.73593 38.82482,-20.52147 -15.81188,-12.2323 -31.50483,7.7106 -39.82793,18.11308 -1.92195,2.70164 -16.61198,16.23779 0.30767,29.95585 z"
       id="path71"
       sodipodi:nodetypes="ccccc" />
    <path
       style="fill:#502d16;stroke:none;stroke-width:1.07576px;stroke-linecap:butt;stroke-linejoin:miter;stroke-opacity:1"
       d="m 307.2065,274.72115 c 1.155,-9.88761 11.89242,-18.56934 41.90911,-24.82493 17.31552,-10.97245 13.85137,-11.86646 18.42528,-21.62175 -1.79906,14.42311 -3.5145,13.4761 -15.92555,24.07306 -21.95246,4.86302 -36.54844,9.40165 -44.40884,22.37362 z"
       id="path73"
       sodipodi:nodetypes="ccccc" />
  </g>
</svg>
