<?xml version="1.0" encoding="UTF-8" standalone="no"?>
<svg
   xmlns:dc="http://purl.org/dc/elements/1.1/"
   xmlns:cc="http://creativecommons.org/ns#"
   xmlns:rdf="http://www.w3.org/1999/02/22-rdf-syntax-ns#"
   xmlns:svg="http://www.w3.org/2000/svg"
   xmlns="http://www.w3.org/2000/svg"
   xmlns:xlink="http://www.w3.org/1999/xlink"
   xmlns:sodipodi="http://sodipodi.sourceforge.net/DTD/sodipodi-0.dtd"
   xmlns:inkscape="http://www.inkscape.org/namespaces/inkscape"
   viewBox="0 0 128 128"
   version="1.1"
   id="svg24"
   sodipodi:docname="retry.svg"
   inkscape:version="1.0.2 (e86c870879, 2021-01-15)">
  <metadata
     id="metadata28">
    <rdf:RDF>
      <cc:Work
         rdf:about="">
        <dc:format>image/svg+xml</dc:format>
        <dc:type
           rdf:resource="http://purl.org/dc/dcmitype/StillImage" />
      </cc:Work>
    </rdf:RDF>
  </metadata>
  <sodipodi:namedview
     pagecolor="#ffffff"
     bordercolor="#666666"
     borderopacity="1"
     objecttolerance="10"
     gridtolerance="10"
     guidetolerance="10"
     inkscape:pageopacity="0"
     inkscape:pageshadow="2"
     inkscape:window-width="1920"
     inkscape:window-height="1009"
     id="namedview26"
     showgrid="false"
     inkscape:zoom="3.2890625"
     inkscape:cx="-54.534205"
     inkscape:cy="33.867781"
     inkscape:window-x="0"
     inkscape:window-y="34"
     inkscape:window-maximized="0"
     inkscape:current-layer="svg24" />
  <defs
     id="0">
    <linearGradient
       id="7">
      <stop
         id="F"
         stop-color="#a4c0e4" />
      <stop
         id="G"
         offset="1"
         stop-color="#6193cf" />
    </linearGradient>
    <linearGradient
       id="8">
      <stop
         id="H"
         stop-color="#fff" />
      <stop
         id="I"
         offset="1"
         stop-color="#fff"
         stop-opacity="0" />
    </linearGradient>
    <linearGradient
       id="9">
      <stop
         id="J" />
      <stop
         id="K"
         offset="1"
         stop-opacity="0" />
    </linearGradient>
    <radialGradient
       cx="68.01"
       cy="124.75"
       r="39.585"
       id="A"
       xlink:href="#9"
       gradientUnits="userSpaceOnUse"
       gradientTransform="matrix(1,0,0,0.06153846,0,117.07494)" />
    <filter
       x="-0.035"
       y="-0.573"
       width="1.07"
       height="2.145"
       color-interpolation-filters="sRGB"
       id="B">
      <feGaussianBlur
         stdDeviation="1.16249"
         id="L" />
    </filter>
    <linearGradient
       y1="3.565"
       x2="0"
       y2="9.54"
       id="C"
       xlink:href="#8"
       gradientUnits="userSpaceOnUse" />
    <linearGradient
       y1="33.954"
       x2="0"
       y2="46.44"
       id="D"
       xlink:href="#8"
       gradientUnits="userSpaceOnUse"
       gradientTransform="matrix(1.0513598,0,0,1.117578,3.6983038,-3.0353842)" />
    <linearGradient
       y1="1.581"
       x2="0"
       y2="122.44"
       id="E"
       xlink:href="#7"
       gradientUnits="userSpaceOnUse"
       gradientTransform="matrix(0.8897751,0,0,0.8897751,-3.6911698,6.0717857)" />
  </defs>
  <path
     d="m 33.581257,0.01075192 c -0.334208,0.0052076 -0.569658,0.0085553 -0.798898,0.02586127 -0.108801,0.0081834 -0.24942,0.0010229 -0.385675,0.02586127 -0.06021,0.01096384 -0.127024,0.0090203 -0.247934,0.05171324 -0.05276,0.018645 -0.133104,0.0603616 -0.247934,0.12928497 -0.11483,0.0689169 -0.242391,0.17387496 -0.385674,0.38785582 -0.143308,0.21401619 -0.205025,0.37017141 -0.220386,0.49128411 -0.01537,0.1211137 -0.005,0.2065871 0,0.2585709 0.01224,0.1285457 0.07042,0.1891899 0.08265,0.2327133 0.03236,0.1153249 0.0389,0.229877 0.08265,0.3361426 0.08388,0.2037265 0.218501,0.4401273 0.358127,0.7239977 0.280664,0.5706163 0.695048,1.3371737 1.184572,2.2495642 0.978815,1.8243448 2.29822,4.1786754 3.636364,6.5676927 2.676369,4.77818 5.464767,9.69425 5.509641,9.773968 0.01828,0.03247 0.685546,1.276534 1.707989,3.102848 1.022444,1.826313 2.401907,4.238152 3.746556,6.619406 1.34459,2.381147 2.695414,4.782588 3.746557,6.567694 0.525586,0.892585 0.978951,1.633094 1.322313,2.171993 0.171317,0.268874 0.30992,0.493843 0.440772,0.672283 0.06859,0.09354 0.137085,0.142528 0.220386,0.232714 0.03608,0.03907 0.06199,0.101333 0.165288,0.181 0.04455,0.03436 0.09917,0.09918 0.220386,0.155142 0.121219,0.05596 0.309698,0.119816 0.578513,0.129285 0.321632,0.01134 0.516353,-0.04042 0.633609,-0.103428 0.117256,-0.06301 0.153811,-0.152087 0.192837,-0.180999 0.102713,-0.0761 0.165103,-0.124805 0.220386,-0.181 0.108052,-0.109836 0.176215,-0.212744 0.275482,-0.336142 0.20146,-0.250431 0.450885,-0.573664 0.743801,-0.982568 0.585518,-0.817368 1.356726,-1.961368 2.231406,-3.257989 1.559333,-2.311553 3.406186,-5.122117 5.06887,-7.627833 9.535182,4.639996 16.115701,13.862423 16.115701,24.641777 -10e-7,15.46717 -13.328444,28.0032 -29.807161,28.0032 -16.47872,0 -29.834708,-12.536086 -29.834708,-28.0032 1e-6,-6.390977 2.393035,-12.208365 6.253443,-16.936374 0.201611,-0.247099 0.294583,-0.546782 0.247933,-0.853282 -0.04675,-0.307193 -0.228169,-0.591182 -0.495867,-0.775712 -3.552236,-2.482597 -5.331704,-3.700213 -6.225895,-4.318129 -0.447129,-0.308981 -0.692696,-0.480834 -0.826446,-0.568856 -0.06367,-0.0419 -0.05223,-0.04395 -0.16529,-0.103427 -0.01628,-0.0086 -0.04159,-0.01926 -0.05509,-0.02586 -0.08631,-0.0564 -0.286445,-0.221688 -0.716253,-0.517141 -0.88102,-0.605618 -2.682261,-1.822059 -6.225896,-4.292273 -0.541198,-0.372956 -1.274225,-0.296148 -1.680439,0.206857 C 3.9309728,32.741034 0,42.455722 0,53.069436 0,78.962957 22.385362,100 49.972448,100 77.559541,100 100,78.964426 100,53.069436 100,35.519581 89.537296,20.487626 74.297516,12.499715 75.68633,10.43251 77.087966,8.3291103 78.154265,6.7335917 78.777958,5.8003458 79.330128,4.9925665 79.696964,4.4064559 79.880777,4.1127654 80.000518,3.88548 80.110187,3.6824584 c 0.05344,-0.098923 0.143256,-0.1858813 0.192838,-0.3102851 0.02182,-0.054754 0.05761,-0.1342358 0.08265,-0.2585699 0.01026,-0.050969 0.02601,-0.1286061 0.02755,-0.2585708 0.0016,-0.1299648 -0.03462,-0.3108728 -0.165288,-0.5429987 C 80.121735,2.087836 80.002718,1.9707303 79.889809,1.8983215 79.776901,1.8259081 79.690557,1.7902445 79.641875,1.7690356 79.523919,1.7176478 79.426667,1.7068886 79.366393,1.6914611 79.235288,1.6579186 79.145554,1.6558263 79.035815,1.6397479 78.807275,1.6062612 78.541835,1.5906849 78.209369,1.5621733 77.542455,1.5049828 76.623407,1.4394462 75.537193,1.3811742 73.365147,1.2646516 70.531158,1.1518151 67.658405,1.0450326 64.7856,0.9382481 61.879334,0.85628341 59.669425,0.7864617 57.459516,0.71664278 55.940364,0.6587632 55.89532,0.65717674 55.787422,0.65336404 49.9015,0.43181915 44.159784,0.24346337 41.289107,0.14929245 38.4272,0.04627885 36.253449,0.01075006 c -1.087121,-0.01777091 -2.003374,-0.0104337816 -2.672176,0 z"
     id="3"
     fill="url(#E)"
     style="fill:#ffffff;stroke-width:0.854055"
     inkscape:export-xdpi="96"
     inkscape:export-ydpi="96" />
  <path
     d="m 31.495403,42.216634 c -0.0498,0.134742 -0.1231,0.342915 -0.222443,0.61172 0.01997,-0.154307 0.0078,-0.179359 0.0278,-0.333666 l 0.194638,-0.278054 z"
     id="6"
     opacity="0.634"
     fill="#ac4311"
     style="fill:#ffffff"
     inkscape:export-xdpi="96"
     inkscape:export-ydpi="96" />
</svg>
